<svg width="145" height="33" viewBox="0 0 145 33" fill="none" xmlns="http://www.w3.org/2000/svg">
<path d="M138.55 0.32381H138.09V2.55V3.52143H137.379V2.55V0.32381H137.003H136V0H139.511V0.32381H138.55Z" fill="white"/>
<path d="M143.984 3.52143V2.50952V0.890476L142.813 3.48095H142.563L141.392 0.890476V2.34762V3.52143H141.058V2.34762V0.890476V0H141.727L142.897 2.59048L144.068 0H144.736V0.890476V2.50952V3.48095H143.984V3.52143Z" fill="white"/>
<path d="M7.17947 2.2681C7.79962 2.84719 8.13355 3.7882 8.13355 5.18767C8.13355 6.0563 7.94273 6.80429 7.5611 7.35925C7.20332 7.93834 6.75013 8.25201 6.22539 8.42091C5.65294 8.61394 4.91352 8.61394 3.93559 8.61394H3.02921V1.37533C3.29158 1.35121 3.62551 1.35121 4.031 1.35121C5.55753 1.35121 6.58317 1.66488 7.17947 2.2681ZM10.7334 7.62466C11.1628 6.85255 11.3774 5.98391 11.3774 4.99464C11.3774 3.86059 11.0674 2.89544 10.3995 2.12332C9.75549 1.37533 8.92067 0.796246 7.91888 0.506703C6.94095 0.217158 5.55753 0.0241284 3.76862 0.0241284H0V4.89812V13.3432V18H3.02921V9.82038H4.57959C6.51161 9.82038 7.96659 9.74799 8.80141 9.3378C9.61238 8.92761 10.2802 8.39678 10.7334 7.62466Z" fill="white"/>
<path d="M34.1203 18V16.7936H24.651V0.0241284H21.598V4.68096V13.2225V18H34.1203Z" fill="white"/>
<path d="M52.1505 10.4477H47.1177L49.5983 4.22252L52.1505 10.4477ZM58.519 18L50.9817 0.0241284H50.0992L42.7528 18H44.2793L46.7122 11.6059H52.6037L53.844 14.622C53.844 14.622 54.2256 15.5389 55.2036 18H58.519Z" fill="white"/>
<path d="M82.466 18V3.54692V0.0241284H81.1541V3.35389V12.5952L71.8518 0.0241284H68.7988V4.46381V13.4638V17.5657H69.9675V13.4638V2.58177L81.5596 18H82.466Z" fill="white"/>
<path d="M103.782 1.20643V0H93.1675V4.60858V10.9786V12.0161V13.2225V17.9759H103.734V16.7936H98.1764H96.2444V13.2225V12.0161V11.3646V10.9786V9.14477H97.7471H101.182V7.96247H97.6755H96.2444V5.13941V4.63271V1.20643H98.2241H103.782Z" fill="white"/>
<path d="M130 1.20643L129.976 0.0241284H112.707L112.66 1.20643H117.549H119.767V13.1019V18H122.821V13.1019V1.20643H125.349H130Z" fill="white"/>
<path d="M32.8554 31.9475C32.3119 32.5141 31.6431 32.7975 30.9325 32.7975C30.2637 32.7975 29.6785 32.5546 29.1351 32.0689C28.6335 31.5832 28.3827 31.0165 28.3827 30.3284C28.3827 29.6808 28.6335 29.0737 29.1351 28.5879C29.6367 28.1022 30.2219 27.8594 30.9325 27.8594C31.7267 27.8594 32.3537 28.1427 32.7718 28.7094L32.1029 29.2356C31.7685 28.8308 31.3505 28.6284 30.9325 28.6284C30.5145 28.6284 30.0965 28.7903 29.7621 29.1141C29.4277 29.4379 29.2187 29.8427 29.2187 30.288C29.2187 30.7737 29.3859 31.1784 29.7203 31.5022C30.0547 31.826 30.4727 31.988 30.9325 31.988C31.1415 31.988 31.3923 31.9475 31.6013 31.826C31.8103 31.7046 32.0193 31.5832 32.1865 31.3808L32.8554 31.9475Z" fill="white"/>
<path d="M38.9165 31.6643L38.4567 32.7167H37.5789L39.9197 27.7786L42.2605 32.7167H41.3827L40.9229 31.6643H38.9165ZM39.9197 29.4381L39.2509 30.9357H40.5885L39.9197 29.4381Z" fill="white"/>
<path d="M49.0739 27.9404C49.5755 27.9404 49.9517 28.0619 50.2861 28.3047C50.5787 28.5476 50.7459 28.9119 50.7459 29.3166C50.7459 29.6404 50.6623 29.9238 50.4533 30.1666C50.2443 30.4095 50.0353 30.5714 49.7845 30.6523L50.8713 32.7166H49.9517L48.9067 30.7333H47.9871V32.7166H47.1929V27.9404H49.0739ZM47.9453 30.0047H49.1157C49.3665 30.0047 49.5755 29.9642 49.7427 29.8428C49.8681 29.7214 49.9517 29.5595 49.9517 29.3571C49.9517 29.1547 49.8681 28.9928 49.7427 28.8714C49.5755 28.75 49.4083 28.7095 49.1157 28.7095H47.9871L47.9453 30.0047Z" fill="white"/>
<path d="M56.9325 31.6643L56.4727 32.7167H55.5948L57.9357 27.7786L60.2765 32.7167H59.3987L58.9389 31.6643H56.9325ZM57.9357 29.4381L57.2669 30.9357H58.6045L57.9357 29.4381Z" fill="white"/>
<path d="M64.3313 27.9404H65.2509L66.6721 31.138L68.0933 27.9404H69.013L66.6721 32.838L64.3313 27.9404Z" fill="white"/>
<path d="M74.4887 31.6643L74.0289 32.7167H73.1511L75.492 27.7786L77.8328 32.7167H76.9132L76.4534 31.6643H74.4887ZM75.492 29.4381L74.8231 30.9357H76.1608L75.492 29.4381Z" fill="white"/>
<path d="M86.1094 27.9405H86.9454V32.8381L83.5595 29.6V32.6762H82.7235V27.7786L86.1094 31.0167V27.9405Z" fill="white"/>
<path d="M93.5081 30.531C92.7557 30.2477 92.3376 29.8024 92.3376 29.1143C92.3376 28.75 92.463 28.4262 92.7557 28.1834C93.0483 27.9405 93.3827 27.8191 93.8007 27.8191C94.3023 27.8191 94.8875 27.981 95.5145 28.3453L95.1383 29.0334C94.6367 28.75 94.2187 28.6286 93.9261 28.6286C93.6753 28.6286 93.4663 28.6691 93.3827 28.7905C93.2573 28.9119 93.2155 29.0334 93.2155 29.1548C93.2155 29.3977 93.3409 29.5596 93.6335 29.681L94.5949 30.0453C95.3055 30.3286 95.6817 30.7739 95.6817 31.381C95.6817 31.8262 95.5145 32.15 95.2219 32.3929C94.8875 32.6358 94.5113 32.7572 94.0097 32.7572C93.7589 32.7572 93.4663 32.6762 93.0901 32.5953C92.7139 32.4739 92.3794 32.3119 92.045 32.1096L92.4213 31.4215C93.0483 31.7858 93.5917 31.9881 94.0097 31.9881C94.2605 31.9881 94.4695 31.9072 94.5949 31.8262C94.7203 31.7048 94.8039 31.5834 94.8039 31.381C94.8039 31.0977 94.5949 30.8953 94.2187 30.7739L93.5081 30.531Z" fill="white"/>
</svg>
